<?xml version="1.0" standalone="no"?>
<!DOCTYPE svg PUBLIC "-//W3C//DTD SVG 20010904//EN"
 "http://www.w3.org/TR/2001/REC-SVG-20010904/DTD/svg10.dtd">
<svg version="1.0" xmlns="http://www.w3.org/2000/svg"
 width="881.000000pt" height="283.000000pt" viewBox="0 0 881.000000 283.000000"
 preserveAspectRatio="xMidYMid meet">

<g transform="translate(0.000000,283.000000) scale(0.100000,-0.100000)"
fill="#000000" stroke="none">
<path d="M2275 2265 c-157 -21 -301 -53 -405 -91 -191 -71 -300 -139 -444
-275 l-83 -78 -44 45 c-54 56 -196 152 -292 198 -74 36 -229 84 -352 110 -88
18 -296 46 -348 46 -35 0 -38 -2 -31 -22 4 -12 15 -69 24 -126 10 -57 22 -108
27 -113 5 -5 63 -11 129 -14 65 -2 121 -4 124 -4 3 -1 -24 -15 -59 -31 -149
-71 -250 -171 -316 -315 -46 -98 -56 -159 -56 -327 1 -176 9 -216 63 -326 118
-238 371 -373 669 -360 58 3 114 10 125 16 10 6 44 19 74 28 62 19 186 78 213
102 27 24 31 8 13 -47 -9 -27 -16 -55 -16 -60 0 -7 47 -11 138 -11 l139 0 25
88 c15 48 30 103 35 122 l9 35 184 3 185 2 39 -125 40 -125 258 0 258 0 0 595
0 595 -140 0 -140 0 -2 -507 -3 -508 -22 60 c-12 33 -55 154 -97 270 -74 209
-155 431 -216 598 l-33 88 -130 -3 -131 -3 -52 -160 c-29 -88 -71 -212 -94
-275 -23 -63 -64 -176 -90 -250 -54 -152 -68 -190 -72 -190 -2 0 -3 105 -3
232 l0 233 -272 3 -273 2 0 -120 0 -120 130 0 130 0 0 -125 0 -124 -53 -16
c-73 -23 -191 -30 -259 -16 -136 29 -255 124 -298 239 -43 112 -36 292 14 391
34 66 124 147 204 183 81 37 202 49 279 28 l47 -14 52 58 53 58 68 -37 c37
-20 81 -48 96 -61 35 -30 68 -31 93 -2 27 30 136 99 224 140 162 77 329 121
525 138 66 6 149 14 184 18 74 8 68 -1 96 147 9 44 18 90 21 103 5 26 -6 27
-161 7z m-381 -1015 c31 -101 42 -149 34 -150 -81 -9 -218 -10 -218 -3 0 6 15
62 34 124 19 63 40 134 46 159 6 25 17 57 23 72 12 27 12 27 29 -30 9 -31 33
-109 52 -172z"/>
<path d="M3208 2251 c-73 -24 -113 -49 -169 -108 -94 -98 -124 -181 -124 -338
1 -129 18 -190 76 -277 82 -121 195 -180 344 -180 91 -1 144 15 200 57 25 19
47 35 49 35 2 0 7 -18 11 -40 l7 -40 69 0 69 0 0 235 0 235 -192 -2 -193 -3 0
-80 0 -80 95 0 c92 0 95 -1 98 -23 13 -87 -172 -154 -283 -103 -89 41 -126
111 -133 251 -3 79 -1 105 17 154 38 109 111 161 216 154 75 -5 124 -36 156
-101 12 -23 23 -43 24 -45 2 -2 44 9 94 24 65 20 91 32 91 43 0 28 -57 116
-100 155 -74 67 -139 90 -260 93 -81 2 -118 -1 -162 -16z"/>
<path d="M3910 1810 l0 -450 95 0 95 0 0 450 0 450 -95 0 -95 0 0 -450z"/>
<path d="M6540 2238 c-5 -13 -25 -63 -44 -113 -18 -49 -59 -157 -91 -240 -32
-82 -73 -195 -92 -250 -19 -55 -50 -137 -69 -183 -19 -45 -34 -84 -34 -87 0
-3 49 -5 109 -5 l109 0 33 97 34 98 152 2 c108 1 155 -2 162 -11 5 -6 24 -51
41 -99 l32 -87 109 0 c60 0 109 2 109 4 0 2 -32 84 -71 183 -76 190 -114 289
-121 313 -3 8 -38 102 -78 208 l-74 192 -103 0 c-98 0 -104 -1 -113 -22z m164
-367 c25 -74 43 -138 40 -142 -3 -5 -45 -9 -95 -9 -101 0 -99 -3 -70 86 11 32
30 94 42 137 12 43 25 74 29 70 4 -4 28 -68 54 -142z"/>
<path d="M7180 1810 l0 -451 98 3 97 3 3 448 2 447 -100 0 -100 0 0 -450z"/>
<path d="M4452 2016 c-119 -39 -189 -124 -212 -259 -14 -78 -1 -187 30 -246
28 -56 109 -124 170 -144 116 -37 269 -13 347 56 109 96 143 274 78 415 -38
83 -66 115 -137 152 -55 30 -74 34 -148 37 -53 2 -101 -2 -128 -11z m175 -166
c39 -23 52 -47 62 -110 12 -76 -3 -157 -35 -191 -55 -57 -132 -59 -183 -5 -33
35 -48 137 -32 208 22 102 108 147 188 98z"/>
<path d="M5147 2016 c-107 -40 -165 -122 -152 -217 13 -95 78 -150 218 -183
103 -25 137 -43 137 -72 0 -29 -31 -44 -88 -44 -55 0 -98 15 -142 50 l-40 32
-49 -41 c-79 -67 -79 -64 -22 -110 74 -58 144 -81 245 -81 183 0 285 76 286
213 0 55 -16 90 -57 128 -38 36 -74 52 -172 78 -132 36 -153 50 -126 88 22 30
121 25 174 -10 48 -32 46 -32 126 37 l40 35 -23 24 c-13 13 -48 37 -79 53 -48
24 -71 29 -147 31 -61 2 -104 -1 -129 -11z"/>
<path d="M5792 2016 c-96 -31 -152 -99 -152 -184 0 -128 62 -180 278 -233 77
-18 102 -68 45 -90 -60 -23 -140 -5 -206 45 l-33 25 -56 -44 c-31 -24 -59 -48
-62 -54 -7 -11 76 -77 134 -107 25 -13 64 -19 137 -22 119 -5 184 12 240 61
45 40 63 82 63 149 -1 110 -58 160 -245 214 -98 28 -115 37 -115 65 0 49 124
51 186 4 l35 -27 38 26 c21 15 49 38 61 51 l23 25 -23 25 c-13 14 -49 37 -79
52 -68 32 -199 42 -269 19z"/>
<path d="M8515 340 c-4 -6 1 -7 12 -3 10 3 15 3 11 -2 -4 -4 3 -16 15 -26 28
-23 15 -24 -20 -1 -15 9 -24 11 -20 5 8 -12 -4 -18 -26 -14 -5 1 -6 -3 -2 -9
3 -5 0 -10 -7 -10 -10 0 -10 -2 1 -9 11 -7 11 -9 0 -14 -9 -3 -10 -6 -2 -6 6
-1 15 4 18 9 4 7 13 6 26 -1 20 -10 20 -11 3 -30 -15 -17 -15 -19 -2 -14 9 4
19 13 22 21 3 8 11 14 18 14 8 0 9 -3 3 -8 -5 -4 -16 -18 -23 -32 -8 -14 4 -5
26 20 22 25 36 47 31 48 -5 2 -6 9 -3 14 4 6 3 8 -3 5 -5 -3 -20 7 -33 24 -26
31 -35 35 -45 19z m29 -56 c5 -13 9 -14 20 -5 10 8 16 9 21 1 16 -26 -21 -34
-61 -12 -12 6 -25 8 -29 4 -5 -4 -5 -1 -1 6 4 7 12 10 17 7 5 -4 9 -1 9 4 0
17 17 13 24 -5z"/>
<path d="M8500 239 c0 -5 5 -7 10 -4 6 3 10 8 10 11 0 2 -4 4 -10 4 -5 0 -10
-5 -10 -11z"/>
</g>
</svg>
